<svg xmlns="http://www.w3.org/2000/svg" version="1.1"
  xmlns:xlink="http://www.w3.org/1999/xlink"
  xmlns:svgjs="http://svgjs.dev/svgjs" width="46" height="68">
  <svg width="46" height="68" viewBox="0 0 46 68" fill="none"
    xmlns="http://www.w3.org/2000/svg">
    <path d="M22.9212 67.846C23.1972 67.846 23.4212 67.622 23.4212 67.346V43.298C26.4922 46.333 36.8872 56.175 42.6002 56.177C42.6022 56.177 42.6022 56.177 42.6022 56.177C43.6652 56.177 44.5372 55.845 45.1902 55.19C47.0882 53.294 44.6682 47.065 40.2252 36.22C39.0422 33.335 37.8212 30.353 36.6722 27.358C35.7382 24.925 34.8422 22.496 33.9752 20.147C29.8192 8.894 26.5362 0.00599945 22.9242 0.000999451L22.9212 0C19.3102 0 16.0262 8.887 11.8712 20.138C11.0022 22.49 10.1032 24.922 9.17023 27.359C8.02223 30.354 6.80023 33.337 5.61823 36.221C1.17623 47.065 -1.24577 53.293 0.652229 55.192C1.30623 55.846 2.17823 56.178 3.24223 56.178C8.95523 56.178 19.3532 46.331 22.4212 43.297V67.347C22.4212 67.622 22.6452 67.846 22.9212 67.846ZM23.4212 1.098C26.2332 2.081 29.5432 11.036 33.0362 20.493C33.9042 22.847 34.8042 25.279 35.7382 27.716C36.8902 30.722 38.1132 33.71 39.2982 36.6C42.5942 44.645 46.0022 52.964 44.4832 54.485C44.0162 54.952 43.4012 55.178 42.6022 55.178C42.6022 55.178 42.6022 55.178 42.6002 55.178C36.7522 55.176 24.8322 43.31 23.4212 41.883V1.098ZM3.24223 55.177C2.44223 55.177 1.82623 54.949 1.35923 54.483C-0.160245 52.9635 3.24586 44.6498 6.5408 36.6074C6.54194 36.6046 6.54309 36.6018 6.54423 36.599C7.72823 33.709 8.95123 30.721 10.1042 27.715C11.0081 25.3598 11.8774 23.0064 12.7195 20.7269C12.7494 20.6459 12.7794 20.5649 12.8092 20.484C16.3012 11.029 19.6102 2.078 22.4212 1.097V41.88C21.0212 43.297 9.09323 55.177 3.24223 55.177Z" fill="#16A34A"></path>
    <path d="M3.24223 55.177C2.44223 55.177 1.82623 54.949 1.35923 54.483C-0.160245 52.9635 3.24586 44.6498 6.5408 36.6074L6.54423 36.599C7.72823 33.709 8.95123 30.721 10.1042 27.715C11.0081 25.3598 11.8774 23.0064 12.7195 20.7269L12.8092 20.484C16.3012 11.029 19.6102 2.078 22.4212 1.097V41.88C21.0212 43.297 9.09323 55.177 3.24223 55.177Z" fill="#16A34A"></path>
    <path d="M23.4212 1.098C26.2332 2.081 29.5432 11.036 33.0362 20.493C33.9042 22.847 34.8042 25.279 35.7382 27.716C36.8902 30.722 38.1132 33.71 39.2982 36.6C42.5942 44.645 46.0022 52.964 44.4832 54.485C44.0162 54.952 43.4012 55.178 42.6022 55.178H42.6002C36.7522 55.176 24.8322 43.31 23.4212 41.883V1.098Z" fill="#16A34A"></path>
  </svg>
  <style>@media (prefers-color-scheme: light) { :root { filter: none; } }
@media (prefers-color-scheme: dark) { :root { filter: none; } }
  </style>
</svg>